# xmcd
#
# Track frame offsets: 
#        150
#        16672
#        30760
#        47533
#        66003
#        83958
#        97162
#        112906
#        122447
#        139509
#        159066
#        174645
#        188564
#        202436
#
# Disc length: 2940 seconds
#
# Revision: 0
# Processed by: cddbd v1.4PL0 Copyright (c) Steve Scherf et al.
# Submitted via: ExactAudioCopy v0.90b2
#
DISCID=a60b7a0e
DTITLE=Black Horse - Taka wlasnie jestem
DYEAR=2002
DGENRE=Country
TTITLE0=Najprostsza jest droga do domu
TTITLE1=¯yjesz ci¹gle marzeniami
TTITLE2=Taka e³asnie jestem
TTITLE3=Zacznij ¿yæ
TTITLE4=Królowa szos
TTITLE5=Nie bêdzie mnie g³owisia bola³a
TTITLE6=Srebrny dolar
TTITLE7=Korek
TTITLE8=W podró¿y
TTITLE9=Ko³ysanka przy kominku
TTITLE10=Lekarstwo na troski
TTITLE11=Szczêscie we dwoje
TTITLE12=W drogê
TTITLE13=Dar losu
EXTD=
EXTT0=
EXTT1=
EXTT2=
EXTT3=
EXTT4=
EXTT5=
EXTT6=
EXTT7=
EXTT8=
EXTT9=
EXTT10=
EXTT11=
EXTT12=
EXTT13=
PLAYORDER=
